<svg width="16" height="16" viewBox="0 0 16 16" fill="none" xmlns="http://www.w3.org/2000/svg">
<path fill-rule="evenodd" clip-rule="evenodd" d="M8 15.5517L8.43849 15.1688C12.1258 11.9491 14 9.1378 14 6.66663C14 3.16707 11.2686 0.666626 8 0.666626C4.73137 0.666626 2 3.16707 2 6.66663C2 9.1378 3.87421 11.9491 7.56151 15.1688L8 15.5517ZM8 13.7756C4.87107 10.9557 3.33333 8.56612 3.33333 6.66663C3.33333 3.93104 5.44274 1.99997 8 1.99997C10.5573 1.99997 12.6667 3.93104 12.6667 6.66663C12.6667 8.56612 11.1289 10.9557 8 13.7756ZM8 3.33328C9.84095 3.33328 11.3333 4.82567 11.3333 6.66662C11.3333 8.50756 9.84095 9.99995 8 9.99995C6.15905 9.99995 4.66667 8.50756 4.66667 6.66662C4.66667 4.82567 6.15905 3.33328 8 3.33328ZM6 6.66663C6 5.56206 6.89543 4.66662 8 4.66662C9.10457 4.66662 10 5.56206 10 6.66663C10 7.7712 9.10457 8.66663 8 8.66663C6.89543 8.66663 6 7.7712 6 6.66663Z" fill="#BEA4E1"/>
</svg>
