<svg width="16" height="16" viewBox="0 0 16 16" fill="none" xmlns="http://www.w3.org/2000/svg">
<path fill-rule="evenodd" clip-rule="evenodd" d="M7.99999 15.3333C3.9499 15.3333 0.666656 12.05 0.666656 7.99996C0.666656 3.94987 3.9499 0.666626 7.99999 0.666626C12.0501 0.666626 15.3333 3.94987 15.3333 7.99996C15.3333 12.05 12.0501 15.3333 7.99999 15.3333ZM7.99999 14C11.3137 14 14 11.3137 14 7.99997C14 4.68626 11.3137 1.99997 7.99999 1.99997C4.68628 1.99997 1.99999 4.68626 1.99999 7.99997C1.99999 11.3137 4.68628 14 7.99999 14ZM11.3333 7.3333H8.66666V3.99997H7.33332V8.66663H11.3333V7.3333Z" fill="#BEA4E1"/>
</svg>
